<mxfile host="app.diagrams.net" modified="2024-04-28T13:00:15.494Z" agent="Mozilla/5.0 (Windows NT 10.0; Win64; x64) AppleWebKit/537.36 (KHTML, like Gecko) Chrome/124.0.0.0 Safari/537.36" etag="uVtoj2hUSnVe01WbuwD_" version="24.3.1" type="google">
  <diagram name="Σελίδα-1" id="_HcuUnpD0Ex7PqnBDNvS">
    <mxGraphModel grid="1" page="1" gridSize="10" guides="1" tooltips="1" connect="1" arrows="1" fold="1" pageScale="1" pageWidth="1169" pageHeight="1654" math="0" shadow="0">
      <root>
        <mxCell id="0" />
        <mxCell id="1" parent="0" />
        <mxCell id="wxAGwpUnTiU3CbGnrgsp-1" value="Trainer" style="shape=umlActor;verticalLabelPosition=bottom;verticalAlign=top;html=1;outlineConnect=0;" vertex="1" parent="1">
          <mxGeometry x="160" y="520" width="30" height="60" as="geometry" />
        </mxCell>
        <mxCell id="wxAGwpUnTiU3CbGnrgsp-7" style="edgeStyle=orthogonalEdgeStyle;rounded=0;orthogonalLoop=1;jettySize=auto;html=1;entryX=-0.029;entryY=0.5;entryDx=0;entryDy=0;entryPerimeter=0;" edge="1" parent="1" source="wxAGwpUnTiU3CbGnrgsp-2" target="wxAGwpUnTiU3CbGnrgsp-3">
          <mxGeometry relative="1" as="geometry">
            <mxPoint x="530" y="551" as="targetPoint" />
          </mxGeometry>
        </mxCell>
        <mxCell id="wxAGwpUnTiU3CbGnrgsp-2" value="Καρτέλα Γυμναστικής" style="shape=umlBoundary;whiteSpace=wrap;html=1;" vertex="1" parent="1">
          <mxGeometry x="310" y="510" width="100" height="80" as="geometry" />
        </mxCell>
        <mxCell id="wxAGwpUnTiU3CbGnrgsp-22" value="" style="edgeStyle=orthogonalEdgeStyle;rounded=0;orthogonalLoop=1;jettySize=auto;html=1;strokeColor=#FF0000;" edge="1" parent="1" source="wxAGwpUnTiU3CbGnrgsp-3" target="wxAGwpUnTiU3CbGnrgsp-21">
          <mxGeometry relative="1" as="geometry" />
        </mxCell>
        <mxCell id="wxAGwpUnTiU3CbGnrgsp-3" value="έλεγχος αν υπάρχει εγγραφή" style="ellipse;shape=umlControl;whiteSpace=wrap;html=1;" vertex="1" parent="1">
          <mxGeometry x="510" y="510" width="70" height="80" as="geometry" />
        </mxCell>
        <mxCell id="wxAGwpUnTiU3CbGnrgsp-4" style="edgeStyle=orthogonalEdgeStyle;rounded=0;orthogonalLoop=1;jettySize=auto;html=1;exitX=0.5;exitY=0.5;exitDx=0;exitDy=0;exitPerimeter=0;entryX=0.03;entryY=0.5;entryDx=0;entryDy=0;entryPerimeter=0;" edge="1" parent="1" source="wxAGwpUnTiU3CbGnrgsp-1" target="wxAGwpUnTiU3CbGnrgsp-2">
          <mxGeometry relative="1" as="geometry" />
        </mxCell>
        <mxCell id="wxAGwpUnTiU3CbGnrgsp-5" value="επιλογή πλήκτρου Personal" style="text;strokeColor=none;align=center;fillColor=none;html=1;verticalAlign=middle;whiteSpace=wrap;rounded=0;" vertex="1" parent="1">
          <mxGeometry x="200" y="520" width="100" height="30" as="geometry" />
        </mxCell>
        <mxCell id="wxAGwpUnTiU3CbGnrgsp-8" value="οθόνη όπου συμπληρώνει ημερομηνίες, ώρες και πόλη" style="shape=umlBoundary;whiteSpace=wrap;html=1;" vertex="1" parent="1">
          <mxGeometry x="280" y="710" width="110" height="90" as="geometry" />
        </mxCell>
        <mxCell id="wxAGwpUnTiU3CbGnrgsp-11" value="Όχι" style="text;strokeColor=none;align=center;fillColor=none;html=1;verticalAlign=middle;whiteSpace=wrap;rounded=0;" vertex="1" parent="1">
          <mxGeometry x="460" y="580" width="60" height="30" as="geometry" />
        </mxCell>
        <mxCell id="wxAGwpUnTiU3CbGnrgsp-12" value="αποθηκεύει" style="ellipse;shape=umlControl;whiteSpace=wrap;html=1;" vertex="1" parent="1">
          <mxGeometry x="570" y="740" width="70" height="80" as="geometry" />
        </mxCell>
        <mxCell id="wxAGwpUnTiU3CbGnrgsp-14" value="μήνυμα επιβεβαιωμένης εγγραφής" style="shape=umlBoundary;whiteSpace=wrap;html=1;" vertex="1" parent="1">
          <mxGeometry x="940" y="940" width="100" height="80" as="geometry" />
        </mxCell>
        <mxCell id="wxAGwpUnTiU3CbGnrgsp-16" value="Ναι" style="text;strokeColor=none;align=center;fillColor=none;html=1;verticalAlign=middle;whiteSpace=wrap;rounded=0;" vertex="1" parent="1">
          <mxGeometry x="550" y="870" width="60" height="30" as="geometry" />
        </mxCell>
        <mxCell id="wxAGwpUnTiU3CbGnrgsp-24" value="" style="edgeStyle=orthogonalEdgeStyle;rounded=0;orthogonalLoop=1;jettySize=auto;html=1;strokeColor=#FF0000;" edge="1" parent="1" source="wxAGwpUnTiU3CbGnrgsp-21" target="wxAGwpUnTiU3CbGnrgsp-23">
          <mxGeometry relative="1" as="geometry" />
        </mxCell>
        <mxCell id="wxAGwpUnTiU3CbGnrgsp-21" value="εμφανίζει" style="ellipse;shape=umlControl;whiteSpace=wrap;html=1;direction=south;fillColor=#FF0000;" vertex="1" parent="1">
          <mxGeometry x="505" y="360" width="80" height="70" as="geometry" />
        </mxCell>
        <mxCell id="wxAGwpUnTiU3CbGnrgsp-23" value="λίστα με τα ραντεβού του " style="shape=umlBoundary;whiteSpace=wrap;html=1;direction=east;fillColor=#FF0000;" vertex="1" parent="1">
          <mxGeometry x="670" y="355" width="100" height="80" as="geometry" />
        </mxCell>
        <mxCell id="wxAGwpUnTiU3CbGnrgsp-25" value="Ναι" style="text;strokeColor=none;align=center;fillColor=none;html=1;verticalAlign=middle;whiteSpace=wrap;rounded=0;" vertex="1" parent="1">
          <mxGeometry x="525" y="460" width="60" height="30" as="geometry" />
        </mxCell>
        <mxCell id="wxAGwpUnTiU3CbGnrgsp-26" value="μήνυμα αποτυχημένης αποθήκευσης" style="shape=umlBoundary;whiteSpace=wrap;html=1;direction=north;fillColor=#FF0000;" vertex="1" parent="1">
          <mxGeometry x="705" y="545" width="80" height="100" as="geometry" />
        </mxCell>
        <mxCell id="wxAGwpUnTiU3CbGnrgsp-28" value="Όχι" style="text;strokeColor=none;align=center;fillColor=none;html=1;verticalAlign=middle;whiteSpace=wrap;rounded=0;" vertex="1" parent="1">
          <mxGeometry x="640" y="740" width="60" height="30" as="geometry" />
        </mxCell>
        <mxCell id="wxAGwpUnTiU3CbGnrgsp-30" style="edgeStyle=orthogonalEdgeStyle;rounded=0;orthogonalLoop=1;jettySize=auto;html=1;entryX=0.957;entryY=0.8;entryDx=0;entryDy=0;entryPerimeter=0;strokeColor=#FF0000;exitX=1.02;exitY=0.538;exitDx=0;exitDy=0;exitPerimeter=0;" edge="1" parent="1" source="wxAGwpUnTiU3CbGnrgsp-26">
          <mxGeometry relative="1" as="geometry">
            <mxPoint x="660" y="570" as="sourcePoint" />
            <mxPoint x="580" y="550" as="targetPoint" />
            <Array as="points">
              <mxPoint x="650" y="588" />
              <mxPoint x="650" y="550" />
            </Array>
          </mxGeometry>
        </mxCell>
        <mxCell id="kyXJjkIpqwqxiRfMQWmU-4" value="" style="endArrow=classic;html=1;rounded=0;exitX=0.5;exitY=0.5;exitDx=0;exitDy=0;exitPerimeter=0;entryX=-0.027;entryY=0.544;entryDx=0;entryDy=0;entryPerimeter=0;" edge="1" parent="1" source="wxAGwpUnTiU3CbGnrgsp-1" target="wxAGwpUnTiU3CbGnrgsp-8">
          <mxGeometry width="50" height="50" relative="1" as="geometry">
            <mxPoint x="610" y="660" as="sourcePoint" />
            <mxPoint x="660" y="610" as="targetPoint" />
          </mxGeometry>
        </mxCell>
        <mxCell id="kyXJjkIpqwqxiRfMQWmU-5" value="πληκτρολογεί ημερομηνίες, ώρες και πόλη και πατάει εγγραφή" style="text;strokeColor=none;align=center;fillColor=none;html=1;verticalAlign=middle;whiteSpace=wrap;rounded=0;" vertex="1" parent="1">
          <mxGeometry x="150" y="620" width="100" height="80" as="geometry" />
        </mxCell>
        <mxCell id="kyXJjkIpqwqxiRfMQWmU-7" value="" style="endArrow=classic;html=1;rounded=0;exitX=0.982;exitY=0.533;exitDx=0;exitDy=0;exitPerimeter=0;entryX=-0.029;entryY=0.65;entryDx=0;entryDy=0;entryPerimeter=0;" edge="1" parent="1" source="wxAGwpUnTiU3CbGnrgsp-8" target="wxAGwpUnTiU3CbGnrgsp-12">
          <mxGeometry width="50" height="50" relative="1" as="geometry">
            <mxPoint x="610" y="660" as="sourcePoint" />
            <mxPoint x="660" y="610" as="targetPoint" />
            <Array as="points" />
          </mxGeometry>
        </mxCell>
        <mxCell id="q46m4Vgl95wGwKVIAxRi-2" value="Personal Trainer" style="ellipse;shape=umlEntity;whiteSpace=wrap;html=1;" vertex="1" parent="1">
          <mxGeometry x="570" y="940" width="80" height="80" as="geometry" />
        </mxCell>
        <mxCell id="q46m4Vgl95wGwKVIAxRi-5" value="" style="endArrow=classic;html=1;rounded=0;exitX=0.457;exitY=1.013;exitDx=0;exitDy=0;exitPerimeter=0;entryX=0.5;entryY=0;entryDx=0;entryDy=0;" edge="1" parent="1" source="wxAGwpUnTiU3CbGnrgsp-12" target="q46m4Vgl95wGwKVIAxRi-2">
          <mxGeometry width="50" height="50" relative="1" as="geometry">
            <mxPoint x="630" y="890" as="sourcePoint" />
            <mxPoint x="680" y="840" as="targetPoint" />
          </mxGeometry>
        </mxCell>
        <mxCell id="nmrchxR_OL7ihwCt-WeO-1" value="φέρε από την βάση" style="ellipse;shape=umlControl;whiteSpace=wrap;html=1;" vertex="1" parent="1">
          <mxGeometry x="580" y="230" width="70" height="80" as="geometry" />
        </mxCell>
        <mxCell id="nmrchxR_OL7ihwCt-WeO-3" value="" style="endArrow=classic;html=1;rounded=0;exitX=0.057;exitY=0.35;exitDx=0;exitDy=0;exitPerimeter=0;" edge="1" parent="1" source="wxAGwpUnTiU3CbGnrgsp-21" target="nmrchxR_OL7ihwCt-WeO-1">
          <mxGeometry width="50" height="50" relative="1" as="geometry">
            <mxPoint x="630" y="520" as="sourcePoint" />
            <mxPoint x="680" y="470" as="targetPoint" />
          </mxGeometry>
        </mxCell>
        <mxCell id="nmrchxR_OL7ihwCt-WeO-5" value="" style="endArrow=classic;html=1;rounded=0;entryX=0.35;entryY=0.075;entryDx=0;entryDy=0;entryPerimeter=0;" edge="1" parent="1" source="nmrchxR_OL7ihwCt-WeO-1" target="wxAGwpUnTiU3CbGnrgsp-23">
          <mxGeometry width="50" height="50" relative="1" as="geometry">
            <mxPoint x="630" y="520" as="sourcePoint" />
            <mxPoint x="680" y="470" as="targetPoint" />
          </mxGeometry>
        </mxCell>
        <mxCell id="nmrchxR_OL7ihwCt-WeO-7" value="εμφανίζει" style="ellipse;shape=umlControl;whiteSpace=wrap;html=1;" vertex="1" parent="1">
          <mxGeometry x="750" y="940" width="70" height="80" as="geometry" />
        </mxCell>
        <mxCell id="nmrchxR_OL7ihwCt-WeO-8" value="" style="endArrow=classic;html=1;rounded=0;exitX=1;exitY=0.5;exitDx=0;exitDy=0;entryX=-0.014;entryY=0.45;entryDx=0;entryDy=0;entryPerimeter=0;" edge="1" parent="1" source="q46m4Vgl95wGwKVIAxRi-2" target="nmrchxR_OL7ihwCt-WeO-7">
          <mxGeometry width="50" height="50" relative="1" as="geometry">
            <mxPoint x="630" y="830" as="sourcePoint" />
            <mxPoint x="680" y="780" as="targetPoint" />
          </mxGeometry>
        </mxCell>
        <mxCell id="nmrchxR_OL7ihwCt-WeO-9" value="" style="endArrow=classic;html=1;rounded=0;exitX=1.057;exitY=0.513;exitDx=0;exitDy=0;exitPerimeter=0;entryX=0.02;entryY=0.563;entryDx=0;entryDy=0;entryPerimeter=0;" edge="1" parent="1" source="nmrchxR_OL7ihwCt-WeO-7" target="wxAGwpUnTiU3CbGnrgsp-14">
          <mxGeometry width="50" height="50" relative="1" as="geometry">
            <mxPoint x="630" y="830" as="sourcePoint" />
            <mxPoint x="680" y="780" as="targetPoint" />
          </mxGeometry>
        </mxCell>
        <mxCell id="d-pJgFgb3XECeAnqSJjl-1" value="Personal trainer" style="ellipse;shape=umlEntity;whiteSpace=wrap;html=1;" vertex="1" parent="1">
          <mxGeometry x="390" y="400" width="80" height="80" as="geometry" />
        </mxCell>
        <mxCell id="d-pJgFgb3XECeAnqSJjl-2" value="" style="endArrow=classic;html=1;rounded=0;exitX=0.271;exitY=0.2;exitDx=0;exitDy=0;exitPerimeter=0;entryX=0.913;entryY=0.75;entryDx=0;entryDy=0;entryPerimeter=0;" edge="1" parent="1" source="wxAGwpUnTiU3CbGnrgsp-3" target="d-pJgFgb3XECeAnqSJjl-1">
          <mxGeometry width="50" height="50" relative="1" as="geometry">
            <mxPoint x="560" y="520" as="sourcePoint" />
            <mxPoint x="610" y="470" as="targetPoint" />
          </mxGeometry>
        </mxCell>
        <mxCell id="d-pJgFgb3XECeAnqSJjl-3" value="" style="endArrow=classic;html=1;rounded=0;exitX=0.014;exitY=0.5;exitDx=0;exitDy=0;exitPerimeter=0;" edge="1" parent="1" source="nmrchxR_OL7ihwCt-WeO-1" target="d-pJgFgb3XECeAnqSJjl-1">
          <mxGeometry width="50" height="50" relative="1" as="geometry">
            <mxPoint x="560" y="420" as="sourcePoint" />
            <mxPoint x="610" y="370" as="targetPoint" />
          </mxGeometry>
        </mxCell>
        <mxCell id="d-pJgFgb3XECeAnqSJjl-4" value="εμφανίζει" style="ellipse;shape=umlControl;whiteSpace=wrap;html=1;" vertex="1" parent="1">
          <mxGeometry x="425" y="620" width="70" height="80" as="geometry" />
        </mxCell>
        <mxCell id="d-pJgFgb3XECeAnqSJjl-5" value="" style="endArrow=classic;html=1;rounded=0;exitX=0.229;exitY=1;exitDx=0;exitDy=0;exitPerimeter=0;entryX=0.786;entryY=0.163;entryDx=0;entryDy=0;entryPerimeter=0;" edge="1" parent="1" source="wxAGwpUnTiU3CbGnrgsp-3" target="d-pJgFgb3XECeAnqSJjl-4">
          <mxGeometry width="50" height="50" relative="1" as="geometry">
            <mxPoint x="560" y="660" as="sourcePoint" />
            <mxPoint x="610" y="610" as="targetPoint" />
          </mxGeometry>
        </mxCell>
        <mxCell id="d-pJgFgb3XECeAnqSJjl-6" value="" style="endArrow=classic;html=1;rounded=0;entryX=0.855;entryY=0.144;entryDx=0;entryDy=0;entryPerimeter=0;" edge="1" parent="1" source="d-pJgFgb3XECeAnqSJjl-4" target="wxAGwpUnTiU3CbGnrgsp-8">
          <mxGeometry width="50" height="50" relative="1" as="geometry">
            <mxPoint x="560" y="660" as="sourcePoint" />
            <mxPoint x="610" y="610" as="targetPoint" />
          </mxGeometry>
        </mxCell>
        <mxCell id="d-pJgFgb3XECeAnqSJjl-7" value="εμφανίζει" style="ellipse;shape=umlControl;whiteSpace=wrap;html=1;fillColor=#FF0000;" vertex="1" parent="1">
          <mxGeometry x="705" y="690" width="70" height="80" as="geometry" />
        </mxCell>
        <mxCell id="d-pJgFgb3XECeAnqSJjl-8" value="" style="endArrow=classic;html=1;rounded=0;exitX=0.971;exitY=0.575;exitDx=0;exitDy=0;exitPerimeter=0;strokeColor=#FF0000;" edge="1" parent="1" source="wxAGwpUnTiU3CbGnrgsp-12" target="d-pJgFgb3XECeAnqSJjl-7">
          <mxGeometry width="50" height="50" relative="1" as="geometry">
            <mxPoint x="560" y="710" as="sourcePoint" />
            <mxPoint x="610" y="660" as="targetPoint" />
          </mxGeometry>
        </mxCell>
        <mxCell id="d-pJgFgb3XECeAnqSJjl-9" value="" style="endArrow=classic;html=1;rounded=0;exitX=0.3;exitY=0.175;exitDx=0;exitDy=0;exitPerimeter=0;entryX=-0.03;entryY=0.4;entryDx=0;entryDy=0;entryPerimeter=0;strokeColor=#FF0000;" edge="1" parent="1" source="d-pJgFgb3XECeAnqSJjl-7" target="wxAGwpUnTiU3CbGnrgsp-26">
          <mxGeometry width="50" height="50" relative="1" as="geometry">
            <mxPoint x="560" y="710" as="sourcePoint" />
            <mxPoint x="610" y="660" as="targetPoint" />
          </mxGeometry>
        </mxCell>
      </root>
    </mxGraphModel>
  </diagram>
</mxfile>
